<svg width="50" height="50" viewBox="0 0 50 50" fill="none" xmlns="http://www.w3.org/2000/svg">
<rect width="50" height="50" rx="25" fill="#6AA3DA"/>
<path d="M17.3955 6.25009C19.8538 5.89592 22.458 8.58342 23.208 12.2918C23.958 15.9793 22.6038 19.2709 20.1455 19.6459C17.708 20.0209 15.083 17.3334 14.3121 13.6251C13.5413 9.93759 14.9371 6.64592 17.3955 6.25009ZM32.2913 6.25009C34.7705 6.64592 36.1455 9.93759 35.4163 13.6251C34.6246 17.3334 32.0205 20.0209 29.5621 19.6459C27.083 19.2709 25.7288 15.9793 26.4996 12.2918C27.2496 8.58342 29.8538 5.89592 32.2913 6.25009ZM6.24964 15.8334C8.62464 14.8126 11.8538 16.6668 13.5413 19.8959C15.1246 23.1876 14.583 26.6459 12.2288 27.6668C9.87464 28.6876 6.66631 26.8543 5.02048 23.5834C3.37464 20.3126 3.95798 16.8334 6.24964 15.8334ZM43.7496 15.8334C46.0413 16.8334 46.6246 20.3126 44.9788 23.5834C43.333 26.8543 40.1246 28.6876 37.7705 27.6668C35.4163 26.6459 34.8746 23.1876 36.458 19.8959C38.1455 16.6668 41.3746 14.8126 43.7496 15.8334ZM40.2705 38.2918C40.3538 40.2501 38.8538 42.4168 37.0621 43.2293C33.333 44.9376 28.9163 41.3959 24.7705 41.3959C20.6246 41.3959 16.1663 45.0834 12.4996 43.2293C10.4163 42.2084 8.97881 39.5001 9.24964 37.2501C9.62464 34.1459 13.3538 32.4793 15.5621 30.2084C18.4996 27.2709 20.583 21.7501 24.7705 21.7501C28.9371 21.7501 31.1455 27.1876 33.958 30.2084C36.2705 32.7501 40.1246 34.8959 40.2705 38.2918Z" fill="#212529"/>
</svg>
