<svg width="72" height="72" viewBox="0 0 72 72" fill="none" xmlns="http://www.w3.org/2000/svg">
<rect width="72" height="72" rx="36" fill="#6AA3DA"/>
<path d="M25.0497 9.00021C28.5897 8.49021 32.3397 12.3602 33.4197 17.7002C34.4997 23.0102 32.5497 27.7502 29.0097 28.2902C25.4997 28.8302 21.7197 24.9602 20.6097 19.6202C19.4997 14.3102 21.5097 9.57021 25.0497 9.00021ZM46.4997 9.00021C50.0697 9.57021 52.0497 14.3102 50.9997 19.6202C49.8597 24.9602 46.1097 28.8302 42.5697 28.2902C38.9997 27.7502 37.0497 23.0102 38.1597 17.7002C39.2397 12.3602 42.9897 8.49021 46.4997 9.00021ZM8.99972 22.8002C12.4197 21.3302 17.0697 24.0002 19.4997 28.6502C21.7797 33.3902 20.9997 38.3702 17.6097 39.8402C14.2197 41.3102 9.59972 38.6702 7.22972 33.9602C4.85972 29.2502 5.69972 24.2402 8.99972 22.8002ZM62.9997 22.8002C66.2997 24.2402 67.1397 29.2502 64.7697 33.9602C62.3997 38.6702 57.7797 41.3102 54.3897 39.8402C50.9997 38.3702 50.2197 33.3902 52.4997 28.6502C54.9297 24.0002 59.5797 21.3302 62.9997 22.8002ZM57.9897 55.1402C58.1097 57.9602 55.9497 61.0802 53.3697 62.2502C47.9997 64.7102 41.6397 59.6102 35.6697 59.6102C29.6997 59.6102 23.2797 64.9202 17.9997 62.2502C14.9997 60.7802 12.9297 56.8802 13.3197 53.6402C13.8597 49.1702 19.2297 46.7702 22.4097 43.5002C26.6397 39.2702 29.6397 31.3202 35.6697 31.3202C41.6697 31.3202 44.8497 39.1502 48.8997 43.5002C52.2297 47.1602 57.7797 50.2502 57.9897 55.1402Z" fill="#212529"/>
</svg>
