<svg width="52" height="58" viewBox="0 0 52 58" fill="none" xmlns="http://www.w3.org/2000/svg">
<g clip-path="url(#clip0_42_3652)">
<path d="M33.8022 5.9357C35.5293 6.88085 36.0766 9.38727 34.9897 11.3734L30.4957 19.5851C32.4774 18.9234 34.9594 20.0673 35.3984 22.9414C37.7103 22.6796 39.3707 24.8858 39.2134 26.7872C43.2096 28.0151 43.4352 31.443 41.1554 35.6088C41.0318 35.8346 40.543 36.6925 40.421 36.9168C37.6442 42.02 34.6893 41.9978 32.0514 45.5596C31.3939 46.4473 30.2698 46.7509 29.4063 46.2783L16.8674 39.4162L16.8674 39.416C15.5253 38.6803 14.7212 37.1079 14.9433 35.3211C15.2935 32.4256 15.6527 25.5125 14.1306 23.384C13.1514 22.0149 12.9669 20.4619 13.8042 18.9306C15.3434 16.1156 18.9692 15.5852 20.681 17.979C21.1308 18.608 21.5255 19.3294 21.8656 20.1398L28.5821 7.86675C29.6375 5.93822 32.1002 5.00424 33.8022 5.9357ZM15.1048 40.1615L29.1404 47.8427C30.1094 48.373 30.4113 49.6865 29.8147 50.7766L27.6544 54.7241C27.0578 55.8142 25.7887 56.268 24.8198 55.7378L10.7841 48.0566C9.81515 47.5263 9.51326 46.2128 10.1098 45.1227L12.2702 41.1751C12.8667 40.085 14.1358 39.6312 15.1048 40.1615ZM26.1258 49.1853C25.3183 48.7434 24.2607 49.1215 23.7636 50.03C23.2665 50.9384 23.518 52.033 24.3255 52.4749C25.133 52.9168 26.1905 52.5386 26.6877 51.6302C27.1848 50.7218 26.9333 49.6272 26.1258 49.1853Z" fill="#F05A52"/>
<ellipse cx="25.28" cy="50.3709" rx="2.93333" ry="3.2" fill="#F05A52"/>
</g>
<defs>
<clipPath id="clip0_42_3652">
<rect width="32" height="48" fill="white" transform="translate(23.8857 0.508789) rotate(28.6902)"/>
</clipPath>
</defs>
</svg>
